<?xml version="1.0" encoding="utf-8"?>
<!-- Generator: Adobe Illustrator 21.1.0, SVG Export Plug-In . SVG Version: 6.00 Build 0)  -->
<svg version="1.1" id="Layer_1" xmlns="http://www.w3.org/2000/svg" xmlns:xlink="http://www.w3.org/1999/xlink" x="0px" y="0px"
	 viewBox="0 0 362.5 362.8" style="enable-background:new 0 0 362.5 362.8;" xml:space="preserve">
<style type="text/css">
	.st0{fill:#FFFFFF;}
	.st1{fill:#3E1313;}
	.st2{fill:none;}
	.st3{fill:url(#SVGID_1_);}
	.st4{fill:#353169;}
	.st5{fill:url(#SVGID_2_);}
	.st6{fill:url(#SVGID_3_);}
	.st7{opacity:0.5;fill:url(#SVGID_4_);}
	.st8{opacity:0.5;fill:url(#SVGID_5_);}
	.st9{fill:url(#SVGID_6_);}
	.st10{opacity:0.25;}
	.st11{fill:url(#SVGID_7_);}
	.st12{fill:url(#SVGID_8_);}
	.st13{fill:url(#SVGID_9_);}
	.st14{opacity:0.25;fill:url(#SVGID_10_);}
	.st15{fill:url(#SVGID_11_);}
	.st16{opacity:0.25;fill:url(#SVGID_12_);}
	.st17{opacity:0.25;fill:url(#SVGID_13_);}
</style>
<g>
	<polygon class="st0" points="161.6,92.8 161.6,92.8 161.6,92.8 	"/>
	<polygon class="st1" points="165.6,96.1 165.5,96.1 165.5,96.1 	"/>
	<path class="st2" d="M101.3,288.9c-4.5,4.2-7,6.6-7,6.6h7v-2.2V288.9z"/>
	<polygon class="st2" points="267.6,67.8 260.7,67.8 260.7,74.4 	"/>
	<linearGradient id="SVGID_1_" gradientUnits="userSpaceOnUse" x1="305.4392" y1="293.0999" x2="299.7978" y2="346.7745">
		<stop  offset="0" style="stop-color:#8164AB"/>
		<stop  offset="8.611896e-02" style="stop-color:#7473B5"/>
		<stop  offset="0.2538" style="stop-color:#548BC8"/>
		<stop  offset="0.3811" style="stop-color:#3099D5"/>
		<stop  offset="0.4519" style="stop-color:#109FDA"/>
		<stop  offset="0.587" style="stop-color:#28A5D3"/>
		<stop  offset="0.8438" style="stop-color:#46B6C7"/>
		<stop  offset="1" style="stop-color:#55C3BD"/>
	</linearGradient>
	<path class="st3" d="M343,302L343,302c-2-2-4.4-3.7-7.1-4.8c-2.7-1.1-5.6-1.7-8.4-1.7l-69,0v31.6c0,3.1-1.4,6-2.2,8.6
		c-0.8,2.5-2,4.4-3.3,6.2l74.5,0c2.9,0,5.9-0.6,8.6-1.8c2.7-1.2,5.2-3,7.2-5.1l0,0c2-2.1,3.7-4.6,4.9-7.4c1.2-2.8,1.8-5.9,1.7-8.9
		c0-3-0.5-6.1-1.7-9.1C347,306.7,345.2,304.1,343,302z"/>
	<path class="st4" d="M236.9,23.3h-19c-1,0-1.6,0.6-1.6,1.6v0.6c0,4.2-3.5,7.7-7.7,7.7h-56.7c-4.2,0-7.7-3.5-7.7-7.7v-0.6
		c0-1-0.6-1.6-1.6-1.6h-18.1c-6.8,0-12.3,5.5-12.3,12.3v292.8c0,6.8,5.5,12.3,12.3,12.3h112.8c6.8,0,12.3-5.5,12.3-12.3V35.6
		C249.2,28.8,243.7,23.3,236.9,23.3z"/>
	<linearGradient id="SVGID_2_" gradientUnits="userSpaceOnUse" x1="61.983" y1="16.5498" x2="56.3315" y2="70.3196">
		<stop  offset="0" style="stop-color:#8164AB"/>
		<stop  offset="8.611896e-02" style="stop-color:#7473B5"/>
		<stop  offset="0.2538" style="stop-color:#548BC8"/>
		<stop  offset="0.3811" style="stop-color:#3099D5"/>
		<stop  offset="0.4519" style="stop-color:#109FDA"/>
		<stop  offset="0.587" style="stop-color:#28A5D3"/>
		<stop  offset="0.8438" style="stop-color:#46B6C7"/>
		<stop  offset="1" style="stop-color:#55C3BD"/>
	</linearGradient>
	<path class="st5" d="M18.1,61.1c1.9,2.1,4.3,3.9,6.9,5c2.6,1.1,5.4,1.6,8,1.6l70-0.3V35.9c0-6.1,2.7-10.5,5.4-14.4H33.1
		c-2.9,0-5.6,0.5-8.2,1.8c-2.7,1.2-5,3.1-6.9,5.3c-1.8,2.1-3.3,4.6-4.3,7.4c-1,2.8-1.5,5.8-1.5,8.7c0,2.9,0.4,6,1.5,8.8
		C14.6,56.3,16.2,59,18.1,61.1z"/>
	<path class="st4" d="M258.2,81.8V67.8V51.2v-15c0-12.6-10-22.6-22.6-22.6H125.7c-12.6,0-22.6,10-22.6,22.6v19.3
		c-1,0.6-1.6,1.6-1.6,2.9v8.4c0,1.3,0.6,2.3,1.6,2.9v5.8c-1,0.6-1.6,1.6-1.6,2.9v18.4c0,1.3,0.6,2.3,1.6,2.9v5.8
		c-1,0.6-1.6,1.6-1.6,2.9v18.4c0,1.3,0.6,2.3,1.6,2.9v197.4c0,12.6,10.3,22.6,22.6,22.6H236c12.6,0,22.6-10.3,22.6-22.6V106
		c1-0.6,1.9-1.6,1.9-2.9V84.7C260.2,83.4,259.5,82.5,258.2,81.8z M255.3,327.4H255c0,10.6-8.7,19.3-19.3,19.3H125.7
		c-10.6,0-19.3-8.7-19.3-19.3V128.7v-21.9v-8.1V76.8v-8.4V56.5V35.9c0-10.6,8.7-19.3,19.3-19.3H236c10.6,0,19.3,8.7,19.3,19.3V52
		v15.7V327.4z"/>
	<linearGradient id="SVGID_3_" gradientUnits="userSpaceOnUse" x1="199.2517" y1="8.1042" x2="162.7678" y2="355.2247">
		<stop  offset="0" style="stop-color:#8164AB"/>
		<stop  offset="8.611896e-02" style="stop-color:#7473B5"/>
		<stop  offset="0.2538" style="stop-color:#548BC8"/>
		<stop  offset="0.3811" style="stop-color:#3099D5"/>
		<stop  offset="0.4519" style="stop-color:#109FDA"/>
		<stop  offset="0.587" style="stop-color:#28A5D3"/>
		<stop  offset="0.8438" style="stop-color:#46B6C7"/>
		<stop  offset="1" style="stop-color:#55C3BD"/>
	</linearGradient>
	<path class="st6" d="M340.2,62c9.8-9.7,9.8-13.7,9.8-17.4c0-2.3-0.4-4.5-1.2-6.5c-0.7-1.9-1.6-3.6-2.7-5.3c-1-1.6-2.1-3.1-3.5-4.5
		c-1.2-1.1-2.5-2.2-3.9-3.1c-2.1-1.3-4.5-2.3-6.9-3c-2.4-0.6-4.8-0.9-7.2-0.9h-71.7c2,2.3,5.3,7.3,5.4,14.8v4.1v27.5l9.4,0l-7,6.6
		l-2.2,2.1l-5.3,5l-2.7,2.5L109.6,217.8l-8.3,7.8l-2.8,2.7l-8.8,8.3c0,0-60.9,57-72.2,68.4c-5.4,5.5-5.4,11.7-5.4,13.7
		c0,2.1,0.2,4.2,0.8,6.4c0.3,1.1,0.7,2.2,1.3,3.4c0.5,1,1.1,1.9,1.8,2.8c1.1,1.4,2.3,2.8,3.6,4.1c2.2,2,4.9,3.7,7.9,4.9
		c3,1.1,6.2,1.7,9.4,1.7l71.6,0c-1.8-2.4-2.3-3.2-3.5-5.5c-1.4-2.5-2-6.2-2-9.3v-31.6h-8.7c0,0,2.5-2.4,7-6.6c2.3-2.2,5-4.8,8.3-7.8
		c28.2-26.8,90.7-86.1,143.5-136.3c2.5-2.4,5-4.8,7.5-7.1C303.5,96.9,338.4,63.8,340.2,62z"/>
	<polygon class="st2" points="25.9,33.9 25.9,33.9 25.9,33.9 	"/>
	<linearGradient id="SVGID_4_" gradientUnits="userSpaceOnUse" x1="65.1158" y1="47.1292" x2="50.512" y2="15.8113">
		<stop  offset="0" style="stop-color:#B7B9B8;stop-opacity:0"/>
		<stop  offset="1" style="stop-color:#FFFFFF"/>
	</linearGradient>
	<path class="st7" d="M106.6,23.5H94.2H40.3c-3.3,0-6.8,0.5-10,1.8c-3.2,1.2-6.1,3.1-8.4,5.3c-2.2,2.1-4,4.6-5.3,7.4
		c-1.2,2.8-1.8,5.8-1.8,8.7c0,2.9,0.5,6,1.8,8.8c1.2,2.9,3.2,5.5,5.6,7.6c1,0.9,2.1,1.7,3.3,2.5c-2-2-3.7-4.3-4.8-6.9
		c-1.3-2.9-1.8-5.9-1.8-8.8c0-2.9,0.6-5.9,1.8-8.7c1.2-2.8,3.1-5.3,5.3-7.4c0,0,0,0,0,0l0,0c0,0,0,0,0,0c2.3-2.2,5.2-4.1,8.4-5.3
		c3.2-1.2,6.7-1.8,10-1.8h53.9h5.8C104.8,25.6,105.6,24.5,106.6,23.5z"/>
	
		<linearGradient id="SVGID_5_" gradientUnits="userSpaceOnUse" x1="120.4677" y1="-291.7765" x2="105.8639" y2="-323.0944" gradientTransform="matrix(-1 0 0 -1 415.4924 24.7211)">
		<stop  offset="0" style="stop-color:#B7B9B8;stop-opacity:0"/>
		<stop  offset="1" style="stop-color:#FFFFFF"/>
	</linearGradient>
	<path class="st8" d="M255.2,340.6l9.6,0h53.9c3.3,0,6.8-0.5,10-1.8c3.2-1.2,6.1-3.1,8.4-5.3c2.2-2.1,4-4.6,5.3-7.4
		c1.2-2.8,1.8-5.8,1.8-8.7c0-2.9-0.5-6-1.8-8.8c-1.2-2.9-3.2-5.5-5.6-7.6c-1-0.9-2.1-1.7-3.3-2.5c2,2,3.7,4.3,4.8,6.9
		c1.3,2.9,1.8,5.9,1.8,8.8c0,2.9-0.6,5.9-1.8,8.7c-1.2,2.8-3.1,5.3-5.3,7.4c0,0,0,0,0,0l0,0c0,0,0,0,0,0c-2.3,2.2-5.2,4.1-8.4,5.3
		c-3.2,1.2-6.7,1.8-10,1.8h-53.9l-2.9,0C257.1,338.6,256.2,339.7,255.2,340.6z"/>
	<path class="st2" d="M254.7,52.2l0.6-0.2V35.9c0-10.6-8.7-19.3-19.3-19.3H125.7c-10.6,0-19.3,8.7-19.3,19.3v20.6v11.9v8.4v21.9v8.1
		v21.9v198.7c0,10.6,8.7,19.3,19.3,19.3h109.9c10.6,0,19.3-8.7,19.3-19.3h0.3V67.8h-0.6V52.2z M198.9,23.3c0.3,0,0.6,0.6,1,1
		c1,1.9-1,4.2-3.2,3.2c-0.6,0-1-0.3-1-1C194.7,24.6,196.6,22.3,198.9,23.3z M167.6,23.3h21.9c1,0,1.6,1,1.6,1.9c0,1-0.6,1.6-1.6,1.6
		h-21.9c-1,0-1.6-1-1.6-1.9C166,24,166.7,23.3,167.6,23.3z M249.5,328.4c0,6.8-5.5,12.3-12.3,12.3H124.4c-6.8,0-12.3-5.5-12.3-12.3
		V35.6c0-6.8,5.5-12.3,12.3-12.3h18.1c1,0,1.6,0.6,1.6,1.6v0.6c0,4.2,3.5,7.7,7.7,7.7h56.7c4.2,0,7.7-3.5,7.7-7.7v-0.6
		c0-1,0.6-1.6,1.6-1.6h19c6.8,0,12.3,5.5,12.6,12.3V328.4z"/>
	<path class="st4" d="M167.6,26.9h21.9c1,0,1.6-0.6,1.6-1.6c0-1-0.6-1.9-1.6-1.9h-21.9c-1,0-1.6,0.6-1.6,1.6
		C166,25.9,166.7,26.9,167.6,26.9z"/>
	<path class="st4" d="M196.6,27.5c2.3,1,4.2-1.3,3.2-3.2c-0.3-0.3-0.6-1-1-1c-2.3-1-4.2,1.3-3.2,3.2C195.7,27.2,196,27.5,196.6,27.5
		z"/>
	
		<linearGradient id="SVGID_6_" gradientUnits="userSpaceOnUse" x1="1841.5647" y1="-167.7531" x2="1847.0212" y2="-185.6005" gradientTransform="matrix(1 0 0 -1 -1567.0393 -121.6233)">
		<stop  offset="0.352" style="stop-color:#232527;stop-opacity:0"/>
		<stop  offset="0.6284" style="stop-color:#1B1D1F;stop-opacity:0.4266"/>
		<stop  offset="1" style="stop-color:#07090A"/>
	</linearGradient>
	<polygon class="st9" points="267.6,67.8 295.8,40.9 258.2,51.2 258.2,67.8 	"/>
	<g class="st10">
		<linearGradient id="SVGID_7_" gradientUnits="userSpaceOnUse" x1="308.1383" y1="51.8809" x2="326.6546" y2="24.4294">
			<stop  offset="0.5319" style="stop-color:#232527;stop-opacity:0"/>
			<stop  offset="0.7316" style="stop-color:#1B1D1F;stop-opacity:0.4266"/>
			<stop  offset="1" style="stop-color:#07090A"/>
		</linearGradient>
		<path class="st11" d="M341.5,37.4C335.2,26.7,325,26,325,26h-33.4c16.2,2.9,42.8,11.8,37.2,39.8l11.1-11.1
			C339.9,54.7,347.9,48.1,341.5,37.4z"/>
		<linearGradient id="SVGID_8_" gradientUnits="userSpaceOnUse" x1="302.1797" y1="47.6782" x2="331.7514" y2="20.1022">
			<stop  offset="0.4182" style="stop-color:#B7B9B8;stop-opacity:0"/>
			<stop  offset="1" style="stop-color:#FFFFFF"/>
		</linearGradient>
		<path class="st12" d="M345.2,35.4c-6.8-11.4-17.6-12.1-17.6-12.1h-48.1c0,0,5.1,0.1,12.1,1.4H326c0,0,10.5,0.7,17.1,11.8
			c6.6,11.1-1.7,17.9-1.7,17.9L330,65.8c-0.1,0.6-0.3,1.3-0.4,2l13.9-13.8C343.4,53.9,351.9,46.8,345.2,35.4z"/>
	</g>
	
		<linearGradient id="SVGID_9_" gradientUnits="userSpaceOnUse" x1="72.2086" y1="139.1241" x2="101.7802" y2="111.5481" gradientTransform="matrix(-1 0 0 -1 131.9895 454.222)">
		<stop  offset="0.4182" style="stop-color:#B7B9B8;stop-opacity:0"/>
		<stop  offset="1" style="stop-color:#FFFFFF"/>
	</linearGradient>
	<path class="st13" d="M16.8,327.3c6.8,11.4,17.6,12.1,17.6,12.1h48.1c0,0-5.1-0.1-12.1-1.4H35.9c0,0-10.5-0.7-17.1-11.8
		c-6.6-11.1,1.7-17.9,1.7-17.9L32,297c0.1-0.6,0.3-1.3,0.4-2l-13.9,13.8C18.6,308.8,10,315.9,16.8,327.3z"/>
	
		<linearGradient id="SVGID_10_" gradientUnits="userSpaceOnUse" x1="78.1672" y1="143.3268" x2="96.6835" y2="115.8753" gradientTransform="matrix(-1 0 0 -1 131.9895 454.222)">
		<stop  offset="0.5319" style="stop-color:#232527;stop-opacity:0"/>
		<stop  offset="0.7316" style="stop-color:#1B1D1F;stop-opacity:0.4266"/>
		<stop  offset="1" style="stop-color:#07090A"/>
	</linearGradient>
	<path class="st14" d="M20.4,325.4c6.4,10.7,16.6,11.4,16.6,11.4h33.4C54.2,333.9,27.6,325,33.2,297L22.1,308
		C22.1,308,14.1,314.7,20.4,325.4z"/>
	
		<linearGradient id="SVGID_11_" gradientUnits="userSpaceOnUse" x1="1729.2117" y1="-220.7075" x2="1734.3136" y2="-237.3951" gradientTransform="matrix(-1 0 0 1 1816.0597 536.8054)">
		<stop  offset="0.352" style="stop-color:#232527;stop-opacity:0"/>
		<stop  offset="0.6284" style="stop-color:#1B1D1F;stop-opacity:0.4266"/>
		<stop  offset="1" style="stop-color:#07090A"/>
	</linearGradient>
	<polygon class="st15" points="103.2,311.1 103.2,302.7 103.2,301.6 103.2,295.5 94.4,295.5 66.2,322.4 	"/>
	<radialGradient id="SVGID_12_" cx="227.6013" cy="161.383" r="129.9159" gradientUnits="userSpaceOnUse">
		<stop  offset="0" style="stop-color:#FFFFFF"/>
		<stop  offset="1" style="stop-color:#B7B9B8;stop-opacity:0"/>
	</radialGradient>
	<polygon class="st16" points="174,211.3 183.4,202.6 347,50.8 355.6,42.8 361.8,37.1 360,35.9 353.8,41.6 345.2,49.6 181.6,201.4 
		172.2,210.2 93.4,283.3 97.5,286.9 97.7,286.7 95.2,284.4 	"/>
	<radialGradient id="SVGID_13_" cx="134.4287" cy="204.3857" r="129.9159" gradientUnits="userSpaceOnUse">
		<stop  offset="0" style="stop-color:#FFFFFF"/>
		<stop  offset="1" style="stop-color:#B7B9B8;stop-opacity:0"/>
	</radialGradient>
	<polygon class="st17" points="80.8,254.3 90.2,245.6 253.9,93.8 262.4,85.8 268.6,80.1 266.8,78.9 260.6,84.6 252.1,92.6 
		88.4,244.4 79,253.2 0.2,326.3 4.3,329.9 4.5,329.7 2,327.5 	"/>
</g>
</svg>
